<?xml version="1.0" encoding="UTF-8" standalone="no"?><!DOCTYPE svg PUBLIC "-//W3C//DTD SVG 1.1//EN" "http://www.w3.org/Graphics/SVG/1.1/DTD/svg11.dtd"><svg width="100%" height="100%" viewBox="0 0 1600 380" version="1.1" xmlns="http://www.w3.org/2000/svg" xmlns:xlink="http://www.w3.org/1999/xlink" xml:space="preserve" xmlns:serif="http://www.serif.com/" style="fill-rule:evenodd;clip-rule:evenodd;stroke-linejoin:round;stroke-miterlimit:2;"><g><g><path d="M618.915,165.7c-6.843,-0 -13.183,1.157 -19.02,3.472c-5.837,2.314 -10.869,5.736 -15.095,10.264c-4.227,4.529 -7.548,10.164 -9.963,16.907c-2.415,6.742 -3.623,14.441 -3.623,23.095c0,17.309 4.327,30.543 12.982,39.7c8.654,9.158 20.227,13.737 34.719,13.737c8.453,-0 15.497,-1.157 21.133,-3.472c5.635,-2.314 10.667,-4.981 15.095,-8c2.214,1.207 4.025,2.717 5.434,4.528c1.409,1.812 2.113,4.026 2.113,6.642c0,2.818 -1.107,5.434 -3.32,7.85c-2.214,2.415 -5.284,4.528 -9.209,6.339c-3.924,1.812 -8.553,3.271 -13.887,4.378c-5.334,1.107 -11.12,1.66 -17.359,1.66c-10.466,0 -20.127,-1.509 -28.983,-4.528c-8.856,-3.019 -16.504,-7.548 -22.944,-13.586c-6.441,-6.038 -11.473,-13.636 -15.096,-22.793c-3.622,-9.158 -5.434,-19.976 -5.434,-32.455c0,-12.277 1.912,-22.995 5.736,-32.152c3.824,-9.158 8.957,-16.856 15.397,-23.096c6.441,-6.239 14.039,-10.918 22.794,-14.038c8.755,-3.12 18.064,-4.68 27.926,-4.68c6.239,0 12.026,0.554 17.359,1.661c5.334,1.107 9.913,2.667 13.737,4.679c3.824,2.013 6.793,4.277 8.906,6.793c2.113,2.516 3.17,5.082 3.17,7.699c-0,2.415 -0.705,4.528 -2.113,6.34c-1.409,1.811 -3.221,3.22 -5.435,4.226c-4.428,-3.019 -9.258,-5.635 -14.491,-7.849c-5.233,-2.214 -12.076,-3.321 -20.529,-3.321Z" style="fill:#222;fill-rule:nonzero;"/><path d="M734.543,273.177c8.453,-0 15.447,-0.856 20.982,-2.566c5.535,-1.711 9.51,-3.372 11.925,-4.982l0,-43.775l-37.435,3.924c-10.466,1.007 -18.215,3.372 -23.247,7.095c-5.032,3.723 -7.547,9.208 -7.547,16.454c-0,7.648 2.918,13.535 8.755,17.661c5.836,4.126 14.692,6.189 26.567,6.189Zm-0.302,-127.705c17.51,0 31.398,3.925 41.663,11.775c10.264,7.849 15.397,20.227 15.397,37.134l-0,71.55c-0,4.428 -0.856,7.799 -2.567,10.114c-1.71,2.315 -4.277,4.478 -7.698,6.491c-4.831,2.818 -11.221,5.283 -19.171,7.396c-7.95,2.114 -17.057,3.17 -27.322,3.17c-18.919,0 -33.561,-3.723 -43.927,-11.17c-10.365,-7.447 -15.548,-18.215 -15.548,-32.303c0,-13.284 4.328,-23.297 12.982,-30.04c8.655,-6.742 20.831,-10.918 36.53,-12.529l42.87,-4.226l0,-8.453c0,-10.064 -3.019,-17.41 -9.057,-22.039c-6.038,-4.629 -14.189,-6.944 -24.454,-6.944c-8.453,-0 -16.403,1.208 -23.85,3.623c-7.447,2.415 -14.089,5.132 -19.926,8.151c-1.61,-1.409 -3.069,-3.019 -4.377,-4.83c-1.308,-1.812 -1.962,-3.824 -1.962,-6.038c-0,-2.818 0.704,-5.133 2.113,-6.944c1.409,-1.812 3.623,-3.522 6.642,-5.132c5.434,-2.818 11.673,-4.982 18.718,-6.491c7.044,-1.51 14.692,-2.265 22.944,-2.265Z" style="fill:#222;fill-rule:nonzero;"/><path d="M846.851,288.272c-1.007,0.402 -2.516,0.855 -4.529,1.359c-2.013,0.503 -4.227,0.754 -6.642,0.754c-8.654,0 -12.982,-3.623 -12.982,-10.868l0,-186.274c1.007,-0.402 2.567,-0.855 4.68,-1.358c2.113,-0.503 4.277,-0.755 6.491,-0.755c8.654,0 12.982,3.623 12.982,10.869l-0,186.273Z" style="fill:#222;fill-rule:nonzero;"/><path d="M998.707,265.931c0,4.026 -0.855,7.145 -2.566,9.359c-1.711,2.214 -4.378,4.428 -8,6.642c-4.026,2.617 -9.762,5.082 -17.209,7.397c-7.447,2.314 -16.001,3.471 -25.662,3.471c-10.868,0 -20.831,-1.408 -29.888,-4.226c-9.057,-2.818 -16.856,-7.195 -23.397,-13.133c-6.541,-5.937 -11.573,-13.485 -15.095,-22.642c-3.522,-9.158 -5.284,-20.178 -5.284,-33.059c0,-13.082 1.812,-24.303 5.435,-33.662c3.623,-9.359 8.503,-17.057 14.642,-23.095c6.139,-6.038 13.384,-10.466 21.737,-13.284c8.352,-2.818 17.259,-4.227 26.718,-4.227c6.441,0 12.68,0.805 18.718,2.416c6.038,1.61 11.271,3.622 15.699,6.038l-0,-60.683c1.006,-0.402 2.566,-0.855 4.679,-1.358c2.114,-0.503 4.277,-0.755 6.491,-0.755c8.655,0 12.982,3.623 12.982,10.869l0,163.932Zm-24.152,-90.268c-4.025,-2.818 -8.655,-5.233 -13.888,-7.246c-5.232,-2.013 -11.271,-3.019 -18.114,-3.019c-6.239,-0 -12.126,0.956 -17.661,2.868c-5.535,1.912 -10.415,5.032 -14.642,9.359c-4.227,4.327 -7.598,10.013 -10.114,17.057c-2.516,7.045 -3.774,15.599 -3.774,25.662c0,18.517 4.428,31.901 13.284,40.153c8.856,8.252 20.63,12.378 35.323,12.378c7.044,-0 12.83,-0.755 17.359,-2.264c4.528,-1.51 8.604,-3.372 12.227,-5.585l-0,-89.363Z" style="fill:#222;fill-rule:nonzero;"/><path d="M1046.71,233.326c5.435,26.366 22.744,39.549 51.928,39.549c8.453,-0 16.101,-1.409 22.944,-4.227c6.843,-2.817 12.277,-5.836 16.303,-9.057c4.83,2.818 7.245,6.642 7.245,11.473c0,2.817 -1.257,5.534 -3.773,8.151c-2.516,2.616 -5.938,4.931 -10.265,6.944c-4.327,2.012 -9.359,3.622 -15.095,4.83c-5.736,1.208 -11.925,1.811 -18.567,1.811c-23.347,0 -41.813,-6.339 -55.399,-19.019c-13.586,-12.68 -20.378,-31.197 -20.378,-55.55c-0,-11.473 1.66,-21.687 4.981,-30.643c3.321,-8.957 7.95,-16.555 13.888,-22.794c5.937,-6.239 13.032,-11.019 21.284,-14.34c8.252,-3.321 17.208,-4.982 26.869,-4.982c9.057,0 17.41,1.51 25.058,4.529c7.648,3.019 14.239,7.296 19.774,12.831c5.535,5.535 9.862,12.076 12.982,19.623c3.12,7.548 4.68,15.85 4.68,24.907c-0,4.428 -1.007,7.598 -3.02,9.51c-2.012,1.912 -4.83,3.07 -8.453,3.472l-92.986,12.982Zm41.663,-68.23c-12.277,0 -22.441,4.277 -30.492,12.831c-8.051,8.554 -12.277,20.781 -12.68,36.681l83.023,-11.472c-1.006,-11.07 -4.881,-20.177 -11.623,-27.322c-6.743,-7.145 -16.152,-10.718 -28.228,-10.718Z" style="fill:#222;fill-rule:nonzero;"/><path d="M1195.25,288.272c-1.006,0.402 -2.516,0.855 -4.528,1.359c-2.013,0.503 -4.227,0.754 -6.642,0.754c-8.655,0 -12.982,-3.623 -12.982,-10.868l0,-102.345c0,-4.629 0.855,-8.302 2.566,-11.019c1.711,-2.717 4.579,-5.384 8.604,-8.001c5.233,-3.421 12.328,-6.39 21.284,-8.906c8.957,-2.516 19.071,-3.774 30.342,-3.774c16.101,0 24.152,4.026 24.152,12.076c-0,2.013 -0.302,3.875 -0.906,5.586c-0.604,1.71 -1.409,3.17 -2.415,4.377c-2.013,-0.402 -4.629,-0.805 -7.85,-1.207c-3.22,-0.403 -6.44,-0.604 -9.66,-0.604c-9.259,-0 -17.41,0.956 -24.455,2.868c-7.044,1.912 -12.881,4.176 -17.51,6.793l0,112.911Z" style="fill:#222;fill-rule:nonzero;"/><path d="M1319.63,273.177c8.453,-0 15.447,-0.856 20.982,-2.566c5.535,-1.711 9.51,-3.372 11.925,-4.982l0,-43.775l-37.436,3.924c-10.466,1.007 -18.215,3.372 -23.246,7.095c-5.032,3.723 -7.548,9.208 -7.548,16.454c0,7.648 2.919,13.535 8.755,17.661c5.837,4.126 14.693,6.189 26.568,6.189Zm-0.302,-127.705c17.51,0 31.398,3.925 41.662,11.775c10.265,7.849 15.397,20.227 15.397,37.134l0,71.55c0,4.428 -0.855,7.799 -2.566,10.114c-1.711,2.315 -4.277,4.478 -7.698,6.491c-4.831,2.818 -11.221,5.283 -19.171,7.396c-7.95,2.114 -17.058,3.17 -27.322,3.17c-18.919,0 -33.562,-3.723 -43.927,-11.17c-10.365,-7.447 -15.548,-18.215 -15.548,-32.303c0,-13.284 4.327,-23.297 12.982,-30.04c8.654,-6.742 20.831,-10.918 36.53,-12.529l42.87,-4.226l0,-8.453c0,-10.064 -3.019,-17.41 -9.057,-22.039c-6.038,-4.629 -14.189,-6.944 -24.454,-6.944c-8.453,-0 -16.403,1.208 -23.85,3.623c-7.447,2.415 -14.089,5.132 -19.926,8.151c-1.61,-1.409 -3.069,-3.019 -4.377,-4.83c-1.309,-1.812 -1.963,-3.824 -1.963,-6.038c0,-2.818 0.705,-5.133 2.114,-6.944c1.408,-1.812 3.622,-3.522 6.641,-5.132c5.435,-2.818 11.674,-4.982 18.718,-6.491c7.045,-1.51 14.693,-2.265 22.945,-2.265Z" style="fill:#222;fill-rule:nonzero;"/></g><g><path d="M341.126,50.021c7.396,-1.256 14.532,3.322 16.474,10.568c0.022,-0.005 0.022,-0.005 0.022,-0.004c0.778,2.902 0.271,5.998 -1.391,8.501c-1.662,2.503 -4.319,4.171 -7.296,4.58c-56.884,7.682 -100.789,56.483 -100.789,115.457c0,64.315 52.216,116.53 116.53,116.53c64.315,0 116.53,-52.215 116.53,-116.53c0,-12.038 -1.829,-23.653 -5.226,-34.583c-0.947,-2.933 -0.649,-6.126 0.825,-8.834c1.473,-2.707 3.993,-4.691 6.97,-5.489c-0.016,-0.063 -0.015,-0.063 -0.015,-0.063c6.981,-1.871 14.189,2.123 16.304,9.033c3.672,12.68 5.675,26.076 5.675,39.936c-0,77.855 -63.208,141.063 -141.063,141.063c-77.854,-0 -141.062,-63.208 -141.062,-141.063c-0,-69.833 50.855,-127.883 117.512,-139.102Z" style="fill:#222;"/><path d="M277.676,141.224c0.513,-0.89 1.289,-1.6 2.22,-2.034c7.859,-3.574 20.301,-7.767 35.413,-7.767c26.332,-0 57.235,32.817 98.735,32.817c16.659,0 29.083,-4.103 37.988,-9.014c1.274,-0.752 2.817,-0.897 4.21,-0.395c1.392,0.501 2.489,1.597 2.991,2.989c3.628,10.337 5.592,21.447 5.592,33.013c0,55.274 -44.875,100.15 -100.149,100.15c-55.273,-0 -100.149,-44.876 -100.149,-100.15c0,-18.043 4.782,-34.979 13.149,-49.609Z" style="fill:#ff6d00;"/></g></g></svg>